<?xml version="1.0" encoding="UTF-8" standalone="no"?>
<!-- Created with Inkscape (http://www.inkscape.org/) -->

<svg
   width="128"
   height="128"
   viewBox="0 0 33.866666 33.866668"
   version="1.1"
   id="svg8"
   inkscape:version="1.3.2 (091e20e, 2023-11-25, custom)"
   sodipodi:docname="centipede-segment.svg"
   inkscape:export-filename="../assets/centipede-segment.png"
   inkscape:export-xdpi="96"
   inkscape:export-ydpi="96"
   xmlns:inkscape="http://www.inkscape.org/namespaces/inkscape"
   xmlns:sodipodi="http://sodipodi.sourceforge.net/DTD/sodipodi-0.dtd"
   xmlns:xlink="http://www.w3.org/1999/xlink"
   xmlns="http://www.w3.org/2000/svg"
   xmlns:svg="http://www.w3.org/2000/svg"
   xmlns:rdf="http://www.w3.org/1999/02/22-rdf-syntax-ns#"
   xmlns:cc="http://creativecommons.org/ns#"
   xmlns:dc="http://purl.org/dc/elements/1.1/">
  <defs
     id="defs2">
    <linearGradient
       id="linearGradient3"
       inkscape:collect="always">
      <stop
         style="stop-color:#8a8a8a;stop-opacity:1;"
         offset="0"
         id="stop3" />
      <stop
         style="stop-color:#c3b3a1;stop-opacity:1;"
         offset="1"
         id="stop4" />
    </linearGradient>
    <linearGradient
       id="linearGradient1"
       inkscape:collect="always">
      <stop
         style="stop-color:#948150;stop-opacity:1;"
         offset="0"
         id="stop1" />
      <stop
         style="stop-color:#cdb897;stop-opacity:1;"
         offset="1"
         id="stop2" />
    </linearGradient>
    <linearGradient
       inkscape:collect="always"
       xlink:href="#linearGradient1"
       id="linearGradient2"
       x1="6.2177089"
       y1="276.89165"
       x2="27.64896"
       y2="276.89165"
       gradientUnits="userSpaceOnUse"
       gradientTransform="rotate(90,17.197918,280.06247)" />
    <linearGradient
       inkscape:collect="always"
       xlink:href="#linearGradient3"
       id="linearGradient12"
       x1="21.166668"
       y1="269.48331"
       x2="31.750002"
       y2="269.48331"
       gradientUnits="userSpaceOnUse" />
    <linearGradient
       inkscape:collect="always"
       xlink:href="#linearGradient3"
       id="linearGradient13"
       gradientUnits="userSpaceOnUse"
       x1="21.166668"
       y1="269.48331"
       x2="31.750002"
       y2="269.48331"
       gradientTransform="translate(1.5249632e-7,7.9375003)" />
    <linearGradient
       inkscape:collect="always"
       xlink:href="#linearGradient3"
       id="linearGradient14"
       gradientUnits="userSpaceOnUse"
       gradientTransform="translate(3.0499264e-7,16.933334)"
       x1="21.166668"
       y1="269.48331"
       x2="31.750002"
       y2="269.48331" />
    <linearGradient
       inkscape:collect="always"
       xlink:href="#linearGradient3"
       id="linearGradient16"
       gradientUnits="userSpaceOnUse"
       gradientTransform="translate(3.0499264e-7,16.933334)"
       x1="21.166668"
       y1="269.48331"
       x2="31.750002"
       y2="269.48331" />
    <linearGradient
       inkscape:collect="always"
       xlink:href="#linearGradient3"
       id="linearGradient17"
       gradientUnits="userSpaceOnUse"
       gradientTransform="translate(1.5249632e-7,7.9375003)"
       x1="21.166668"
       y1="269.48331"
       x2="31.750002"
       y2="269.48331" />
    <linearGradient
       inkscape:collect="always"
       xlink:href="#linearGradient3"
       id="linearGradient18"
       gradientUnits="userSpaceOnUse"
       x1="21.166668"
       y1="269.48331"
       x2="31.750002"
       y2="269.48331" />
  </defs>
  <sodipodi:namedview
     id="base"
     pagecolor="#ffffff"
     bordercolor="#666666"
     borderopacity="1.0"
     inkscape:pageopacity="0.0"
     inkscape:pageshadow="2"
     inkscape:zoom="5.6"
     inkscape:cx="44.553571"
     inkscape:cy="70.267857"
     inkscape:document-units="mm"
     inkscape:current-layer="layer1"
     showgrid="true"
     units="px"
     inkscape:snap-nodes="false"
     inkscape:window-width="1920"
     inkscape:window-height="1017"
     inkscape:window-x="1912"
     inkscape:window-y="-8"
     inkscape:window-maximized="1"
     inkscape:showpageshadow="0"
     inkscape:pagecheckerboard="0"
     inkscape:deskcolor="#d1d1d1">
    <inkscape:grid
       type="xygrid"
       id="grid20"
       spacingx="0.52916667"
       spacingy="0.52916667"
       empspacing="4"
       originx="0"
       originy="0"
       units="px"
       visible="true" />
  </sodipodi:namedview>
  <metadata
     id="metadata5">
    <rdf:RDF>
      <cc:Work
         rdf:about="">
        <dc:format>image/svg+xml</dc:format>
        <dc:type
           rdf:resource="http://purl.org/dc/dcmitype/StillImage" />
      </cc:Work>
    </rdf:RDF>
  </metadata>
  <g
     inkscape:label="レイヤー 1"
     inkscape:groupmode="layer"
     id="layer1"
     transform="translate(0,-263.13332)">
    <g
       id="g16"
       transform="matrix(0,-1,-1,0,297.26039,297.26039)">
      <path
         style="fill:url(#linearGradient16);stroke:#000000;stroke-width:0.264583px;stroke-linecap:butt;stroke-linejoin:miter;stroke-opacity:1"
         d="m 21.166668,285.88748 0.529167,1.5875 c 0,0 3.704166,-1.05833 5.291667,-1.05833 1.5875,0 5.820834,3.175 5.820834,3.175 0,0 -3.704167,-5.29167 -5.291667,-5.29167 -1.587501,0 -6.350001,1.5875 -6.350001,1.5875 z"
         id="path14"
         sodipodi:nodetypes="ccscsc" />
      <path
         style="fill:url(#linearGradient17);stroke:#000000;stroke-width:0.264583px;stroke-linecap:butt;stroke-linejoin:miter;stroke-opacity:1"
         d="m 21.166668,276.89165 0.529167,1.5875 c 0,0 3.704166,-1.05833 5.291667,-1.05833 1.5875,0 5.820834,3.175 5.820834,3.175 0,0 -3.704167,-5.29167 -5.291667,-5.29167 -1.587501,0 -6.350001,1.5875 -6.350001,1.5875 z"
         id="path15"
         sodipodi:nodetypes="ccscsc" />
      <path
         style="fill:url(#linearGradient18);stroke:#000000;stroke-width:0.264583px;stroke-linecap:butt;stroke-linejoin:miter;stroke-opacity:1"
         d="m 21.166668,268.95415 0.529167,1.5875 c 0,0 3.704166,-1.05833 5.291667,-1.05833 1.5875,0 5.820834,3.175 5.820834,3.175 0,0 -3.704167,-5.29167 -5.291667,-5.29167 -1.587501,0 -6.350001,1.5875 -6.350001,1.5875 z"
         id="path16"
         sodipodi:nodetypes="ccscsc" />
    </g>
    <g
       id="g14"
       transform="rotate(90,17.197918,280.06247)">
      <path
         style="fill:url(#linearGradient14);stroke:#000000;stroke-width:0.264583px;stroke-linecap:butt;stroke-linejoin:miter;stroke-opacity:1"
         d="m 21.166668,285.88748 0.529167,1.5875 c 0,0 3.704166,-1.05833 5.291667,-1.05833 1.5875,0 5.820834,3.175 5.820834,3.175 0,0 -3.704167,-5.29167 -5.291667,-5.29167 -1.587501,0 -6.350001,1.5875 -6.350001,1.5875 z"
         id="path13"
         sodipodi:nodetypes="ccscsc" />
      <path
         style="fill:url(#linearGradient13);stroke:#000000;stroke-width:0.264583px;stroke-linecap:butt;stroke-linejoin:miter;stroke-opacity:1"
         d="m 21.166668,276.89165 0.529167,1.5875 c 0,0 3.704166,-1.05833 5.291667,-1.05833 1.5875,0 5.820834,3.175 5.820834,3.175 0,0 -3.704167,-5.29167 -5.291667,-5.29167 -1.587501,0 -6.350001,1.5875 -6.350001,1.5875 z"
         id="path12"
         sodipodi:nodetypes="ccscsc" />
      <path
         style="fill:url(#linearGradient12);stroke:#000000;stroke-width:0.264583px;stroke-linecap:butt;stroke-linejoin:miter;stroke-opacity:1"
         d="m 21.166668,268.95415 0.529167,1.5875 c 0,0 3.704166,-1.05833 5.291667,-1.05833 1.5875,0 5.820834,3.175 5.820834,3.175 0,0 -3.704167,-5.29167 -5.291667,-5.29167 -1.587501,0 -6.350001,1.5875 -6.350001,1.5875 z"
         id="path11"
         sodipodi:nodetypes="ccscsc" />
    </g>
    <path
       style="fill:url(#linearGradient2);stroke:#000000;stroke-width:0.264583px;stroke-linecap:butt;stroke-linejoin:miter;stroke-opacity:1"
       d="m 32.010398,279.79789 c 0.0879,-1.74287 -0.52916,-5.29167 -1.5875,-6.35 -1.05833,-1.05834 -8.4721,-2.11667 -13.22916,-2.11667 -6.35,0 -11.64167,0.52917 -13.22917,2.11667 -1.05833,1.05833 -1.5875,2.11666 -1.5875,6.35 0,4.23333 0.52917,5.29166 1.5875,6.35 1.05833,1.05833 6.87917,2.11666 13.22917,2.11666 4.56226,0 12.17083,-1.05833 13.22916,-2.11666 1.13531,-1.13531 1.49748,-4.56454 1.5875,-6.35 z"
       id="path1"
       sodipodi:nodetypes="ssscscsss" />
  </g>
</svg>
