<?xml version="1.0" encoding="UTF-8" standalone="no"?>
<!-- Created with Inkscape (http://www.inkscape.org/) -->

<svg
   width="128"
   height="128"
   viewBox="0 0 33.866666 33.866668"
   version="1.1"
   id="svg8"
   inkscape:version="1.3.2 (091e20e, 2023-11-25, custom)"
   sodipodi:docname="centipede-head.svg"
   inkscape:export-filename="../assets/centipede-head.png"
   inkscape:export-xdpi="96"
   inkscape:export-ydpi="96"
   xmlns:inkscape="http://www.inkscape.org/namespaces/inkscape"
   xmlns:sodipodi="http://sodipodi.sourceforge.net/DTD/sodipodi-0.dtd"
   xmlns:xlink="http://www.w3.org/1999/xlink"
   xmlns="http://www.w3.org/2000/svg"
   xmlns:svg="http://www.w3.org/2000/svg"
   xmlns:rdf="http://www.w3.org/1999/02/22-rdf-syntax-ns#"
   xmlns:cc="http://creativecommons.org/ns#"
   xmlns:dc="http://purl.org/dc/elements/1.1/">
  <defs
     id="defs2">
    <linearGradient
       id="linearGradient9"
       inkscape:collect="always">
      <stop
         style="stop-color:#ff643e;stop-opacity:1;"
         offset="0"
         id="stop9" />
      <stop
         style="stop-color:#ff4205;stop-opacity:1;"
         offset="0.47234678"
         id="stop11" />
      <stop
         style="stop-color:#00c5af;stop-opacity:1;"
         offset="1"
         id="stop10" />
    </linearGradient>
    <linearGradient
       id="linearGradient3"
       inkscape:collect="always">
      <stop
         style="stop-color:#8a8a8a;stop-opacity:1;"
         offset="0"
         id="stop3" />
      <stop
         style="stop-color:#c3b3a1;stop-opacity:1;"
         offset="1"
         id="stop4" />
    </linearGradient>
    <linearGradient
       id="linearGradient1"
       inkscape:collect="always">
      <stop
         style="stop-color:#948150;stop-opacity:1;"
         offset="0"
         id="stop1" />
      <stop
         style="stop-color:#cdb897;stop-opacity:1;"
         offset="1"
         id="stop2" />
    </linearGradient>
    <linearGradient
       inkscape:collect="always"
       xlink:href="#linearGradient1"
       id="linearGradient2"
       x1="6.2177089"
       y1="276.89165"
       x2="27.64896"
       y2="276.89165"
       gradientUnits="userSpaceOnUse" />
    <linearGradient
       inkscape:collect="always"
       xlink:href="#linearGradient3"
       id="linearGradient4"
       x1="6.1880705"
       y1="286.33727"
       x2="10.806664"
       y2="286.33727"
       gradientUnits="userSpaceOnUse" />
    <linearGradient
       inkscape:collect="always"
       xlink:href="#linearGradient3"
       id="linearGradient5"
       gradientUnits="userSpaceOnUse"
       x1="6.1880705"
       y1="286.33727"
       x2="10.806664"
       y2="286.33727"
       gradientTransform="matrix(-1,0,0,1,33.866669,3.815389e-6)" />
    <linearGradient
       inkscape:collect="always"
       xlink:href="#linearGradient3"
       id="linearGradient7"
       x1="13.390791"
       y1="288.79861"
       x2="15.584635"
       y2="288.79861"
       gradientUnits="userSpaceOnUse" />
    <linearGradient
       inkscape:collect="always"
       xlink:href="#linearGradient3"
       id="linearGradient8"
       gradientUnits="userSpaceOnUse"
       x1="13.390791"
       y1="288.79861"
       x2="15.584635"
       y2="288.79861"
       gradientTransform="matrix(-1,0,0,1,33.866669,3.8811239e-6)" />
    <radialGradient
       inkscape:collect="always"
       xlink:href="#linearGradient9"
       id="radialGradient10"
       cx="9.3469067"
       cy="279.72736"
       fx="9.3469067"
       fy="279.72736"
       r="2.7119193"
       gradientTransform="matrix(1,0,0,0.61929237,0,106.49434)"
       gradientUnits="userSpaceOnUse" />
    <radialGradient
       inkscape:collect="always"
       xlink:href="#linearGradient9"
       id="radialGradient11"
       gradientUnits="userSpaceOnUse"
       gradientTransform="matrix(-1,0,0,0.61929237,32.808336,106.49434)"
       cx="9.3469067"
       cy="279.72736"
       fx="9.3469067"
       fy="279.72736"
       r="2.7119193" />
  </defs>
  <sodipodi:namedview
     id="base"
     pagecolor="#ffffff"
     bordercolor="#666666"
     borderopacity="1.0"
     inkscape:pageopacity="0.0"
     inkscape:pageshadow="2"
     inkscape:zoom="5.6"
     inkscape:cx="44.553571"
     inkscape:cy="70.267857"
     inkscape:document-units="mm"
     inkscape:current-layer="layer1"
     showgrid="true"
     units="px"
     inkscape:snap-nodes="false"
     inkscape:window-width="1920"
     inkscape:window-height="1017"
     inkscape:window-x="1912"
     inkscape:window-y="-8"
     inkscape:window-maximized="1"
     inkscape:showpageshadow="0"
     inkscape:pagecheckerboard="0"
     inkscape:deskcolor="#d1d1d1">
    <inkscape:grid
       type="xygrid"
       id="grid20"
       spacingx="0.52916667"
       spacingy="0.52916667"
       empspacing="4"
       originx="0"
       originy="0"
       units="px"
       visible="true" />
  </sodipodi:namedview>
  <metadata
     id="metadata5">
    <rdf:RDF>
      <cc:Work
         rdf:about="">
        <dc:format>image/svg+xml</dc:format>
        <dc:type
           rdf:resource="http://purl.org/dc/dcmitype/StillImage" />
      </cc:Work>
    </rdf:RDF>
  </metadata>
  <g
     inkscape:label="レイヤー 1"
     inkscape:groupmode="layer"
     id="layer1"
     transform="translate(0,-263.13332)">
    <g
       id="g1"
       transform="rotate(-90,16.933335,278.97723)">
      <path
         style="fill:url(#linearGradient8);stroke:#000000;stroke-width:0.264583px;stroke-linecap:butt;stroke-linejoin:miter;stroke-opacity:1"
         d="m 20.108335,286.41665 -1.5875,1.5875 c 0,0 1.058333,1.05834 1.058333,1.5875 0,0.52917 -0.529167,1.05834 -1.058333,1.5875 -0.529167,0.52917 1.058333,-0.52916 1.5875,-1.05833 0.529166,-0.52917 0,-3.70417 0,-3.70417 z"
         id="path7" />
      <path
         style="fill:url(#linearGradient7);stroke:#000000;stroke-width:0.264583px;stroke-linecap:butt;stroke-linejoin:miter;stroke-opacity:1"
         d="m 13.758334,286.41665 1.5875,1.5875 c 0,0 -1.058333,1.05834 -1.058333,1.5875 0,0.52917 0.529167,1.05834 1.058333,1.5875 0.529167,0.52917 -1.058333,-0.52916 -1.5875,-1.05833 -0.529166,-0.52917 0,-3.70417 0,-3.70417 z"
         id="path6" />
      <path
         style="fill:url(#linearGradient5);stroke:#000000;stroke-width:0.264583px;stroke-linecap:butt;stroke-linejoin:miter;stroke-opacity:1"
         d="m 27.516669,280.06665 -4.233334,2.11667 c 0,0 2.116667,2.11667 2.116667,4.23333 0,2.11667 -1.058333,6.35 -1.058333,6.35 0,0 2.645833,-4.23333 2.645833,-6.35 0,-2.11666 0.529167,-6.35 0.529167,-6.35 z"
         id="path5" />
      <path
         style="fill:url(#linearGradient4);stroke:#000000;stroke-width:0.264583px;stroke-linecap:butt;stroke-linejoin:miter;stroke-opacity:1"
         d="m 6.3500004,280.06665 4.2333336,2.11667 c 0,0 -2.1166666,2.11667 -2.1166666,4.23333 0,2.11667 1.0583333,6.35 1.0583333,6.35 0,0 -2.6458336,-4.23333 -2.6458336,-6.35 0,-2.11666 -0.5291667,-6.35 -0.5291667,-6.35 z"
         id="path2" />
      <path
         style="fill:url(#linearGradient2);stroke:#000000;stroke-width:0.264583px;stroke-linecap:butt;stroke-linejoin:miter;stroke-opacity:1"
         d="m 16.933335,265.24999 c -6.837988,0 -12.7000013,4.23333 -12.7000013,10.58333 0,6.35 4.2333337,6.35 6.3500003,8.46667 2.116667,2.11666 2.116667,4.23333 6.350001,4.23333 4.233333,0 4.233333,-2.11667 6.35,-4.23333 2.116667,-2.11667 6.350001,-2.11667 6.350001,-8.46667 0,-6.35 -6.350001,-10.58333 -12.700001,-10.58333 z"
         id="path1"
         sodipodi:nodetypes="sscscss" />
      <path
         style="fill:url(#radialGradient10);stroke:#000000;stroke-width:0.264583px;stroke-linecap:butt;stroke-linejoin:miter;stroke-opacity:1"
         d="m 6.8791671,278.47915 c 0,0 1.5875003,1.5875 2.6458336,1.5875 1.0583333,0 1.0583333,0.52917 2.1166673,0.52917 1.058333,0 -1.058334,1.05833 -2.645834,0.52917 -1.5875002,-0.52917 -2.1166669,-2.64584 -2.1166669,-2.64584 z"
         id="path8" />
      <path
         style="fill:url(#radialGradient11);stroke:#000000;stroke-width:0.264583px;stroke-linecap:butt;stroke-linejoin:miter;stroke-opacity:1"
         d="m 25.929169,278.47915 c 0,0 -1.5875,1.5875 -2.645834,1.5875 -1.058333,0 -1.058333,0.52917 -2.116667,0.52917 -1.058333,0 1.058334,1.05833 2.645834,0.52917 1.5875,-0.52917 2.116667,-2.64584 2.116667,-2.64584 z"
         id="path11" />
    </g>
  </g>
</svg>
